<svg width="600" height="400" xmlns="http://www.w3.org/2000/svg">
  <defs>
    <linearGradient id="grassGradient4" x1="0%" y1="0%" x2="100%" y2="100%">
      <stop offset="0%" style="stop-color:#16a34a;stop-opacity:1" />
      <stop offset="50%" style="stop-color:#15803d;stop-opacity:1" />
      <stop offset="100%" style="stop-color:#14532d;stop-opacity:1" />
    </linearGradient>
  </defs>
  
  <!-- Stadium stands -->
  <rect width="600" height="100" fill="#e5e7eb"/>
  <rect x="0" y="90" width="600" height="20" fill="#6b7280"/>
  
  <!-- Stadium seats -->
  <rect x="20" y="20" width="560" height="70" fill="#dc2626" opacity="0.8"/>
  <rect x="30" y="30" width="540" height="10" fill="#b91c1c"/>
  <rect x="30" y="50" width="540" height="10" fill="#b91c1c"/>
  <rect x="30" y="70" width="540" height="10" fill="#b91c1c"/>
  
  <!-- Field background -->
  <rect y="110" width="600" height="290" fill="url(#grassGradient4)"/>
  
  <!-- Field outline -->
  <rect x="80" y="140" width="440" height="200" fill="none" stroke="white" stroke-width="4"/>
  
  <!-- Center line -->
  <line x1="300" y1="140" x2="300" y2="340" stroke="white" stroke-width="3"/>
  
  <!-- Center circle -->
  <circle cx="300" cy="240" r="40" fill="none" stroke="white" stroke-width="3"/>
  <circle cx="300" cy="240" r="3" fill="white"/>
  
  <!-- Goals -->
  <rect x="80" y="210" width="20" height="60" fill="none" stroke="white" stroke-width="3"/>
  <rect x="500" y="210" width="20" height="60" fill="none" stroke="white" stroke-width="3"/>
  
  <!-- Goal areas -->
  <rect x="80" y="195" width="50" height="90" fill="none" stroke="white" stroke-width="2"/>
  <rect x="470" y="195" width="50" height="90" fill="none" stroke="white" stroke-width="2"/>
  
  <!-- Stadium floodlights -->
  <rect x="100" y="70" width="12" height="70" fill="#374151"/>
  <circle cx="106" cy="60" r="12" fill="#fbbf24"/>
  <rect x="200" y="70" width="12" height="70" fill="#374151"/>
  <circle cx="206" cy="60" r="12" fill="#fbbf24"/>
  <rect x="400" y="70" width="12" height="70" fill="#374151"/>
  <circle cx="406" cy="60" r="12" fill="#fbbf24"/>
  <rect x="500" y="70" width="12" height="70" fill="#374151"/>
  <circle cx="506" cy="60" r="12" fill="#fbbf24"/>
  
  <!-- Corner flags -->
  <rect x="78" y="138" width="2" height="15" fill="#dc2626"/>
  <rect x="520" y="138" width="2" height="15" fill="#dc2626"/>
  <rect x="78" y="340" width="2" height="15" fill="#dc2626"/>
  <rect x="520" y="340" width="2" height="15" fill="#dc2626"/>
</svg> 