<svg width="600" height="400" xmlns="http://www.w3.org/2000/svg">
  <defs>
    <linearGradient id="grassGradient9" x1="0%" y1="0%" x2="100%" y2="100%">
      <stop offset="0%" style="stop-color:#16a34a;stop-opacity:1" />
      <stop offset="50%" style="stop-color:#15803d;stop-opacity:1" />
      <stop offset="100%" style="stop-color:#166534;stop-opacity:1" />
    </linearGradient>
    <linearGradient id="desertGradient" x1="0%" y1="0%" x2="100%" y2="100%">
      <stop offset="0%" style="stop-color:#fbbf24;stop-opacity:1" />
      <stop offset="50%" style="stop-color:#f59e0b;stop-opacity:1" />
      <stop offset="100%" style="stop-color:#d97706;stop-opacity:1" />
    </linearGradient>
    <radialGradient id="oasisGradient" cx="50%" cy="50%" r="50%">
      <stop offset="0%" style="stop-color:#16a34a;stop-opacity:1" />
      <stop offset="70%" style="stop-color:#15803d;stop-opacity:1" />
      <stop offset="100%" style="stop-color:#fbbf24;stop-opacity:1" />
    </radialGradient>
  </defs>
  
  <!-- Desert sky -->
  <rect width="600" height="120" fill="#f97316"/>
  
  <!-- Desert dunes -->
  <path d="M 0 120 Q 150 80 300 100 Q 450 120 600 90 L 600 120 Z" fill="url(#desertGradient)"/>
  <path d="M 0 110 Q 100 90 200 95 Q 350 100 500 85 Q 550 80 600 85 L 600 120 Z" fill="#f59e0b" opacity="0.7"/>
  
  <!-- Oasis area -->
  <ellipse cx="300" cy="280" rx="250" ry="120" fill="url(#oasisGradient)"/>
  
  <!-- Palm trees around oasis -->
  <ellipse cx="150" cy="200" rx="8" ry="30" fill="#92400e"/>
  <ellipse cx="145" cy="175" rx="20" ry="10" fill="#16a34a"/>
  <ellipse cx="155" cy="170" rx="15" ry="8" fill="#15803d"/>
  
  <ellipse cx="450" cy="210" rx="10" ry="35" fill="#92400e"/>
  <ellipse cx="445" cy="180" rx="22" ry="12" fill="#16a34a"/>
  <ellipse cx="455" cy="175" rx="18" ry="10" fill="#15803d"/>
  
  <ellipse cx="100" cy="320" rx="6" ry="25" fill="#92400e"/>
  <ellipse cx="96" cy="300" rx="15" ry="8" fill="#16a34a"/>
  <ellipse cx="104" cy="295" rx="12" ry="6" fill="#15803d"/>
  
  <ellipse cx="500" cy="330" rx="8" ry="28" fill="#92400e"/>
  <ellipse cx="495" cy="305" rx="18" ry="9" fill="#16a34a"/>
  <ellipse cx="505" cy="300" rx="14" ry="7" fill="#15803d"/>
  
  <!-- Field outline -->
  <rect x="120" y="220" width="360" height="180" fill="none" stroke="white" stroke-width="4"/>
  
  <!-- Center line -->
  <line x1="300" y1="220" x2="300" y2="400" stroke="white" stroke-width="3"/>
  
  <!-- Center circle -->
  <circle cx="300" cy="310" r="35" fill="none" stroke="white" stroke-width="3"/>
  <circle cx="300" cy="310" r="2" fill="white"/>
  
  <!-- Goals -->
  <rect x="120" y="280" width="15" height="60" fill="none" stroke="white" stroke-width="3"/>
  <rect x="465" y="280" width="15" height="60" fill="none" stroke="white" stroke-width="3"/>
  
  <!-- Goal areas -->
  <rect x="120" y="265" width="45" height="90" fill="none" stroke="white" stroke-width="2"/>
  <rect x="435" y="265" width="45" height="90" fill="none" stroke="white" stroke-width="2"/>
  
  <!-- Desert cacti -->
  <ellipse cx="50" cy="150" rx="4" ry="20" fill="#16a34a"/>
  <ellipse cx="45" cy="140" rx="3" ry="8" fill="#16a34a"/>
  <ellipse cx="55" cy="145" rx="3" ry="6" fill="#16a34a"/>
  
  <ellipse cx="550" cy="160" rx="5" ry="25" fill="#16a34a"/>
  <ellipse cx="545" cy="145" rx="4" ry="10" fill="#16a34a"/>
  <ellipse cx="555" cy="150" rx="3" ry="8" fill="#16a34a"/>
  
  <!-- Camels silhouette -->
  <path d="M 80 140 Q 85 135 90 140 Q 95 138 100 142 Q 105 140 110 145" fill="none" stroke="#92400e" stroke-width="3"/>
  <circle cx="85" cy="138" r="2" fill="#92400e"/>
  <circle cx="105" cy="142" r="2" fill="#92400e"/>
  
  <!-- Sun -->
  <circle cx="500" cy="40" r="20" fill="#fbbf24"/>
  <line x1="480" y1="20" x2="485" y2="25" stroke="#fbbf24" stroke-width="3"/>
  <line x1="515" y1="25" x2="520" y2="20" stroke="#fbbf24" stroke-width="3"/>
  <line x1="480" y1="60" x2="485" y2="55" stroke="#fbbf24" stroke-width="3"/>
  <line x1="515" y1="55" x2="520" y2="60" stroke="#fbbf24" stroke-width="3"/>
  <line x1="460" y1="40" x2="470" y2="40" stroke="#fbbf24" stroke-width="3"/>
  <line x1="530" y1="40" x2="540" y2="40" stroke="#fbbf24" stroke-width="3"/>
  
  <!-- Oasis water reflection -->
  <ellipse cx="300" cy="380" rx="180" ry="15" fill="#0ea5e9" opacity="0.3"/>
</svg> 