<svg width="600" height="400" xmlns="http://www.w3.org/2000/svg">
  <defs>
    <linearGradient id="grassGradient3" x1="0%" y1="0%" x2="100%" y2="100%">
      <stop offset="0%" style="stop-color:#84cc16;stop-opacity:1" />
      <stop offset="50%" style="stop-color:#65a30d;stop-opacity:1" />
      <stop offset="100%" style="stop-color:#4d7c0f;stop-opacity:1" />
    </linearGradient>
  </defs>
  
  <!-- Sky with clouds -->
  <rect width="600" height="140" fill="#3b82f6"/>
  <ellipse cx="150" cy="60" rx="40" ry="20" fill="white" opacity="0.8"/>
  <ellipse cx="450" cy="40" rx="60" ry="25" fill="white" opacity="0.7"/>
  <ellipse cx="350" cy="80" rx="35" ry="15" fill="white" opacity="0.6"/>
  
  <!-- Field background -->
  <rect y="140" width="600" height="260" fill="url(#grassGradient3)"/>
  
  <!-- Field outline -->
  <rect x="70" y="170" width="460" height="180" fill="none" stroke="white" stroke-width="4"/>
  
  <!-- Center line -->
  <line x1="300" y1="170" x2="300" y2="350" stroke="white" stroke-width="3"/>
  
  <!-- Center circle -->
  <circle cx="300" cy="260" r="35" fill="none" stroke="white" stroke-width="3"/>
  <circle cx="300" cy="260" r="2" fill="white"/>
  
  <!-- Goals -->
  <rect x="70" y="230" width="15" height="60" fill="none" stroke="white" stroke-width="3"/>
  <rect x="515" y="230" width="15" height="60" fill="none" stroke="white" stroke-width="3"/>
  
  <!-- Trees in background -->
  <ellipse cx="30" cy="120" rx="15" ry="30" fill="#166534"/>
  <ellipse cx="570" cy="110" rx="20" ry="35" fill="#166534"/>
  <ellipse cx="580" cy="130" rx="12" ry="25" fill="#15803d"/>
  
  <!-- Stadium lights -->
  <rect x="80" y="90" width="6" height="80" fill="#374151"/>
  <circle cx="83" cy="85" r="6" fill="#fbbf24"/>
  <rect x="520" y="90" width="6" height="80" fill="#374151"/>
  <circle cx="523" cy="85" r="6" fill="#fbbf24"/>
  
  <!-- Natural grass stripes -->
  <rect x="70" y="170" width="460" height="12" fill="#65a30d" opacity="0.3"/>
  <rect x="70" y="194" width="460" height="12" fill="#65a30d" opacity="0.3"/>
  <rect x="70" y="218" width="460" height="12" fill="#65a30d" opacity="0.3"/>
  <rect x="70" y="242" width="460" height="12" fill="#65a30d" opacity="0.3"/>
  <rect x="70" y="266" width="460" height="12" fill="#65a30d" opacity="0.3"/>
  <rect x="70" y="290" width="460" height="12" fill="#65a30d" opacity="0.3"/>
  <rect x="70" y="314" width="460" height="12" fill="#65a30d" opacity="0.3"/>
  <rect x="70" y="338" width="460" height="12" fill="#65a30d" opacity="0.3"/>
</svg> 