<svg width="600" height="400" xmlns="http://www.w3.org/2000/svg">
  <defs>
    <linearGradient id="grassGradient10" x1="0%" y1="0%" x2="100%" y2="100%">
      <stop offset="0%" style="stop-color:#16a34a;stop-opacity:1" />
      <stop offset="50%" style="stop-color:#15803d;stop-opacity:1" />
      <stop offset="100%" style="stop-color:#166534;stop-opacity:1" />
    </linearGradient>
    <linearGradient id="snowGradient" x1="0%" y1="0%" x2="100%" y2="100%">
      <stop offset="0%" style="stop-color:#f8fafc;stop-opacity:1" />
      <stop offset="50%" style="stop-color:#e2e8f0;stop-opacity:1" />
      <stop offset="100%" style="stop-color:#cbd5e1;stop-opacity:1" />
    </linearGradient>
  </defs>
  
  <!-- Winter sky -->
  <rect width="600" height="120" fill="#64748b"/>
  
  <!-- Snow-covered hills -->
  <path d="M 0 120 Q 150 90 300 100 Q 450 110 600 85 L 600 120 Z" fill="url(#snowGradient)"/>
  <path d="M 0 110 Q 100 95 200 98 Q 350 105 500 90 Q 550 85 600 88 L 600 120 Z" fill="#f1f5f9" opacity="0.8"/>
  
  <!-- Snow-covered trees -->
  <polygon points="80,120 90,80 100,120" fill="#166534"/>
  <ellipse cx="90" cy="85" rx="12" ry="8" fill="white"/>
  
  <polygon points="140,120 150,75 160,120" fill="#15803d"/>
  <ellipse cx="150" cy="80" rx="15" ry="10" fill="white"/>
  
  <polygon points="440,120 450,85 460,120" fill="#166534"/>
  <ellipse cx="450" cy="90" rx="13" ry="9" fill="white"/>
  
  <polygon points="500,120 510,70 520,120" fill="#15803d"/>
  <ellipse cx="510" cy="75" rx="16" ry="11" fill="white"/>
  
  <!-- Field background with snow patches -->
  <rect y="120" width="600" height="280" fill="url(#grassGradient10)"/>
  
  <!-- Snow patches on field -->
  <ellipse cx="150" cy="180" rx="30" ry="15" fill="white" opacity="0.7"/>
  <ellipse cx="450" cy="200" rx="25" ry="12" fill="white" opacity="0.6"/>
  <ellipse cx="100" cy="350" rx="35" ry="18" fill="white" opacity="0.5"/>
  <ellipse cx="500" cy="330" rx="28" ry="14" fill="white" opacity="0.6"/>
  
  <!-- Field outline -->
  <rect x="100" y="160" width="400" height="200" fill="none" stroke="white" stroke-width="4"/>
  
  <!-- Center line -->
  <line x1="300" y1="160" x2="300" y2="360" stroke="white" stroke-width="3"/>
  
  <!-- Center circle -->
  <circle cx="300" cy="260" r="35" fill="none" stroke="white" stroke-width="3"/>
  <circle cx="300" cy="260" r="2" fill="white"/>
  
  <!-- Goals -->
  <rect x="100" y="230" width="15" height="60" fill="none" stroke="white" stroke-width="3"/>
  <rect x="485" y="230" width="15" height="60" fill="none" stroke="white" stroke-width="3"/>
  
  <!-- Goal areas -->
  <rect x="100" y="215" width="50" height="90" fill="none" stroke="white" stroke-width="2"/>
  <rect x="450" y="215" width="50" height="90" fill="none" stroke="white" stroke-width="2"/>
  
  <!-- Heated field lines (steam effect) -->
  <path d="M 120 140 Q 125 135 130 140" fill="none" stroke="#e2e8f0" stroke-width="1" opacity="0.6"/>
  <path d="M 470 140 Q 475 135 480 140" fill="none" stroke="#e2e8f0" stroke-width="1" opacity="0.6"/>
  <path d="M 290 140 Q 295 135 300 140" fill="none" stroke="#e2e8f0" stroke-width="1" opacity="0.6"/>
  <path d="M 310 140 Q 315 135 320 140" fill="none" stroke="#e2e8f0" stroke-width="1" opacity="0.6"/>
  
  <!-- Snowflakes -->
  <g fill="white" opacity="0.8">
    <circle cx="50" cy="50" r="2"/>
    <circle cx="150" cy="30" r="1.5"/>
    <circle cx="250" cy="60" r="2"/>
    <circle cx="350" cy="40" r="1"/>
    <circle cx="450" cy="70" r="1.5"/>
    <circle cx="550" cy="35" r="2"/>
    <circle cx="200" cy="90" r="1"/>
    <circle cx="400" cy="80" r="1.5"/>
    <circle cx="80" cy="200" r="1"/>
    <circle cx="520" cy="180" r="1.5"/>
    <circle cx="180" cy="300" r="1"/>
    <circle cx="420" cy="320" r="1.5"/>
  </g>
  
  <!-- Winter fence -->
  <rect x="80" y="140" width="4" height="25" fill="#92400e"/>
  <rect x="90" y="140" width="4" height="25" fill="#92400e"/>
  <rect x="516" y="140" width="4" height="25" fill="#92400e"/>
  <rect x="526" y="140" width="4" height="25" fill="#92400e"/>
  <line x1="80" y1="145" x2="94" y2="145" stroke="#92400e" stroke-width="2"/>
  <line x1="516" y1="145" x2="530" y2="145" stroke="#92400e" stroke-width="2"/>
  
  <!-- Snow on fence -->
  <ellipse cx="87" cy="140" rx="8" ry="3" fill="white"/>
  <ellipse cx="523" cy="140" rx="8" ry="3" fill="white"/>
  
  <!-- Winter clouds -->
  <ellipse cx="120" cy="40" rx="30" ry="15" fill="#94a3b8" opacity="0.7"/>
  <ellipse cx="480" cy="50" rx="35" ry="18" fill="#94a3b8" opacity="0.6"/>
</svg> 