<svg width="600" height="400" xmlns="http://www.w3.org/2000/svg">
  <defs>
    <linearGradient id="grassGradient5" x1="0%" y1="0%" x2="100%" y2="100%">
      <stop offset="0%" style="stop-color:#166534;stop-opacity:1" />
      <stop offset="50%" style="stop-color:#14532d;stop-opacity:1" />
      <stop offset="100%" style="stop-color:#052e16;stop-opacity:1" />
    </linearGradient>
    <radialGradient id="floodlight" cx="50%" cy="50%" r="50%">
      <stop offset="0%" style="stop-color:#fbbf24;stop-opacity:0.8" />
      <stop offset="70%" style="stop-color:#f59e0b;stop-opacity:0.4" />
      <stop offset="100%" style="stop-color:#d97706;stop-opacity:0.1" />
    </radialGradient>
  </defs>
  
  <!-- Night sky -->
  <rect width="600" height="120" fill="#1e1b4b"/>
  
  <!-- Stars -->
  <circle cx="100" cy="30" r="1" fill="white" opacity="0.8"/>
  <circle cx="200" cy="20" r="1.5" fill="white" opacity="0.9"/>
  <circle cx="350" cy="40" r="1" fill="white" opacity="0.7"/>
  <circle cx="450" cy="25" r="1" fill="white" opacity="0.8"/>
  <circle cx="520" cy="35" r="1.5" fill="white" opacity="0.9"/>
  
  <!-- Moon -->
  <circle cx="550" cy="50" r="20" fill="#fbbf24" opacity="0.8"/>
  
  <!-- Field background -->
  <rect y="120" width="600" height="280" fill="url(#grassGradient5)"/>
  
  <!-- Floodlight illumination areas -->
  <ellipse cx="150" cy="200" rx="120" ry="80" fill="url(#floodlight)"/>
  <ellipse cx="450" cy="200" rx="120" ry="80" fill="url(#floodlight)"/>
  <ellipse cx="300" cy="280" rx="100" ry="60" fill="url(#floodlight)"/>
  
  <!-- Field outline -->
  <rect x="90" y="150" width="420" height="200" fill="none" stroke="white" stroke-width="4"/>
  
  <!-- Center line -->
  <line x1="300" y1="150" x2="300" y2="350" stroke="white" stroke-width="3"/>
  
  <!-- Center circle -->
  <circle cx="300" cy="250" r="40" fill="none" stroke="white" stroke-width="3"/>
  <circle cx="300" cy="250" r="2" fill="white"/>
  
  <!-- Goals -->
  <rect x="90" y="220" width="15" height="60" fill="none" stroke="white" stroke-width="3"/>
  <rect x="495" y="220" width="15" height="60" fill="none" stroke="white" stroke-width="3"/>
  
  <!-- Floodlight towers -->
  <rect x="120" y="80" width="8" height="70" fill="#374151"/>
  <circle cx="124" cy="75" r="10" fill="#fbbf24"/>
  <rect x="250" y="80" width="8" height="70" fill="#374151"/>
  <circle cx="254" cy="75" r="10" fill="#fbbf24"/>
  <rect x="350" y="80" width="8" height="70" fill="#374151"/>
  <circle cx="354" cy="75" r="10" fill="#fbbf24"/>
  <rect x="480" y="80" width="8" height="70" fill="#374151"/>
  <circle cx="484" cy="75" r="10" fill="#fbbf24"/>
  
  <!-- Light beams -->
  <polygon points="124,85 90,150 158,150" fill="#fbbf24" opacity="0.2"/>
  <polygon points="254,85 220,150 288,150" fill="#fbbf24" opacity="0.2"/>
  <polygon points="354,85 320,150 388,150" fill="#fbbf24" opacity="0.2"/>
  <polygon points="484,85 450,150 518,150" fill="#fbbf24" opacity="0.2"/>
  
  <!-- Night atmosphere -->
  <rect width="600" height="400" fill="#1e1b4b" opacity="0.1"/>
</svg> 