<svg width="600" height="400" xmlns="http://www.w3.org/2000/svg">
  <defs>
    <linearGradient id="grassGradient8" x1="0%" y1="0%" x2="100%" y2="100%">
      <stop offset="0%" style="stop-color:#059669;stop-opacity:1" />
      <stop offset="50%" style="stop-color:#047857;stop-opacity:1" />
      <stop offset="100%" style="stop-color:#064e3b;stop-opacity:1" />
    </linearGradient>
    <linearGradient id="cityGradient" x1="0%" y1="0%" x2="100%" y2="100%">
      <stop offset="0%" style="stop-color:#6b7280;stop-opacity:1" />
      <stop offset="100%" style="stop-color:#374151;stop-opacity:1" />
    </linearGradient>
  </defs>
  
  <!-- City skyline -->
  <rect width="600" height="120" fill="#1e293b"/>
  
  <!-- Buildings -->
  <rect x="0" y="60" width="80" height="60" fill="url(#cityGradient)"/>
  <rect x="90" y="40" width="60" height="80" fill="#4b5563"/>
  <rect x="160" y="70" width="70" height="50" fill="url(#cityGradient)"/>
  <rect x="240" y="30" width="50" height="90" fill="#6b7280"/>
  <rect x="300" y="50" width="80" height="70" fill="url(#cityGradient)"/>
  <rect x="390" y="35" width="60" height="85" fill="#4b5563"/>
  <rect x="460" y="65" width="70" height="55" fill="url(#cityGradient)"/>
  <rect x="540" y="45" width="60" height="75" fill="#6b7280"/>
  
  <!-- Building windows -->
  <rect x="10" y="70" width="8" height="8" fill="#fbbf24"/>
  <rect x="25" y="70" width="8" height="8" fill="#fbbf24"/>
  <rect x="10" y="85" width="8" height="8" fill="#fbbf24"/>
  <rect x="25" y="85" width="8" height="8" fill="#fbbf24"/>
  
  <rect x="100" y="50" width="8" height="8" fill="#fbbf24"/>
  <rect x="115" y="50" width="8" height="8" fill="#fbbf24"/>
  <rect x="100" y="65" width="8" height="8" fill="#fbbf24"/>
  <rect x="115" y="65" width="8" height="8" fill="#fbbf24"/>
  
  <rect x="250" y="40" width="8" height="8" fill="#fbbf24"/>
  <rect x="265" y="40" width="8" height="8" fill="#fbbf24"/>
  <rect x="250" y="55" width="8" height="8" fill="#fbbf24"/>
  <rect x="265" y="55" width="8" height="8" fill="#fbbf24"/>
  
  <!-- Antenna/towers -->
  <rect x="120" y="25" width="2" height="15" fill="#9ca3af"/>
  <rect x="270" y="20" width="2" height="10" fill="#9ca3af"/>
  <rect x="420" y="25" width="2" height="10" fill="#9ca3af"/>
  
  <!-- Field background -->
  <rect y="120" width="600" height="280" fill="url(#grassGradient8)"/>
  
  <!-- Urban fence -->
  <rect x="0" y="120" width="600" height="8" fill="#374151"/>
  <rect x="0" y="392" width="600" height="8" fill="#374151"/>
  
  <!-- Field outline -->
  <rect x="70" y="150" width="460" height="220" fill="none" stroke="white" stroke-width="4"/>
  
  <!-- Center line -->
  <line x1="300" y1="150" x2="300" y2="370" stroke="white" stroke-width="3"/>
  
  <!-- Center circle -->
  <circle cx="300" cy="260" r="40" fill="none" stroke="white" stroke-width="3"/>
  <circle cx="300" cy="260" r="2" fill="white"/>
  
  <!-- Goals -->
  <rect x="70" y="225" width="18" height="70" fill="none" stroke="white" stroke-width="3"/>
  <rect x="512" y="225" width="18" height="70" fill="none" stroke="white" stroke-width="3"/>
  
  <!-- Goal areas -->
  <rect x="70" y="205" width="60" height="110" fill="none" stroke="white" stroke-width="2"/>
  <rect x="470" y="205" width="60" height="110" fill="none" stroke="white" stroke-width="2"/>
  
  <!-- Street lights -->
  <rect x="40" y="130" width="4" height="40" fill="#374151"/>
  <circle cx="42" cy="125" r="6" fill="#fbbf24"/>
  <rect x="556" y="130" width="4" height="40" fill="#374151"/>
  <circle cx="558" cy="125" r="6" fill="#fbbf24"/>
  
  <!-- Traffic lights (decorative) -->
  <rect x="20" y="140" width="6" height="15" fill="#374151"/>
  <circle cx="23" cy="145" r="2" fill="#ef4444"/>
  <circle cx="23" cy="149" r="2" fill="#22c55e"/>
  
  <!-- Urban elements -->
  <rect x="580" y="140" width="6" height="15" fill="#374151"/>
  <circle cx="583" cy="145" r="2" fill="#ef4444"/>
  <circle cx="583" cy="149" r="2" fill="#22c55e"/>
  
  <!-- City lights reflection -->
  <rect x="0" y="380" width="600" height="20" fill="#1e293b" opacity="0.3"/>
</svg> 