<svg width="600" height="400" xmlns="http://www.w3.org/2000/svg">
  <defs>
    <linearGradient id="grassGradient6" x1="0%" y1="0%" x2="100%" y2="100%">
      <stop offset="0%" style="stop-color:#22d3ee;stop-opacity:1" />
      <stop offset="50%" style="stop-color:#06b6d4;stop-opacity:1" />
      <stop offset="100%" style="stop-color:#0891b2;stop-opacity:1" />
    </linearGradient>
    <linearGradient id="beachGradient" x1="0%" y1="0%" x2="100%" y2="100%">
      <stop offset="0%" style="stop-color:#fbbf24;stop-opacity:1" />
      <stop offset="100%" style="stop-color:#f59e0b;stop-opacity:1" />
    </linearGradient>
  </defs>
  
  <!-- Beach/Sea background -->
  <rect width="600" height="120" fill="url(#grassGradient6)"/>
  
  <!-- Beach sand -->
  <rect y="120" width="600" height="40" fill="url(#beachGradient)"/>
  
  <!-- Field background -->
  <rect y="160" width="600" height="240" fill="#16a34a"/>
  
  <!-- Palm trees -->
  <ellipse cx="50" cy="100" rx="8" ry="25" fill="#92400e"/>
  <ellipse cx="45" cy="80" rx="15" ry="8" fill="#16a34a"/>
  <ellipse cx="55" cy="75" rx="12" ry="6" fill="#15803d"/>
  
  <ellipse cx="550" cy="110" rx="10" ry="30" fill="#92400e"/>
  <ellipse cx="545" cy="85" rx="18" ry="10" fill="#16a34a"/>
  <ellipse cx="555" cy="80" rx="15" ry="8" fill="#15803d"/>
  
  <!-- Field outline -->
  <rect x="80" y="180" width="440" height="200" fill="none" stroke="white" stroke-width="4"/>
  
  <!-- Center line -->
  <line x1="300" y1="180" x2="300" y2="380" stroke="white" stroke-width="3"/>
  
  <!-- Center circle -->
  <circle cx="300" cy="280" r="40" fill="none" stroke="white" stroke-width="3"/>
  <circle cx="300" cy="280" r="2" fill="white"/>
  
  <!-- Goals -->
  <rect x="80" y="250" width="15" height="60" fill="none" stroke="white" stroke-width="3"/>
  <rect x="505" y="250" width="15" height="60" fill="none" stroke="white" stroke-width="3"/>
  
  <!-- Beach volleyball net (decorative) -->
  <line x1="20" y1="140" x2="20" y2="160" stroke="#8b5cf6" stroke-width="2"/>
  <line x1="580" y1="140" x2="580" y2="160" stroke="#8b5cf6" stroke-width="2"/>
  <line x1="20" y1="150" x2="580" y2="150" stroke="#8b5cf6" stroke-width="1"/>
  
  <!-- Seagulls -->
  <path d="M 150 60 Q 155 55 160 60" fill="none" stroke="white" stroke-width="2"/>
  <path d="M 450 40 Q 455 35 460 40" fill="none" stroke="white" stroke-width="2"/>
  <path d="M 350 70 Q 355 65 360 70" fill="none" stroke="white" stroke-width="2"/>
  
  <!-- Sun -->
  <circle cx="500" cy="50" r="15" fill="#fbbf24" opacity="0.8"/>
  <line x1="485" y1="35" x2="490" y2="40" stroke="#fbbf24" stroke-width="2"/>
  <line x1="510" y1="40" x2="515" y2="35" stroke="#fbbf24" stroke-width="2"/>
  <line x1="485" y1="65" x2="490" y2="60" stroke="#fbbf24" stroke-width="2"/>
  <line x1="510" y1="60" x2="515" y2="65" stroke="#fbbf24" stroke-width="2"/>
</svg> 